<?xml version="1.0" encoding="UTF-8"?>
<svg width="100px" height="100px" viewBox="0 0 100 100" version="1.1" xmlns="http://www.w3.org/2000/svg" xmlns:xlink="http://www.w3.org/1999/xlink">
    <!-- Generator: Sketch 54.1 (76490) - https://sketchapp.com -->
    <title>logo</title>
    <desc>Created with Sketch.</desc>
    <g id="页面1" stroke="none" stroke-width="1" fill="none" fill-rule="evenodd">
        <g id="logo">
            <g id="编组-3" transform="translate(17.000000, 0.000000)" fill="#374AFB">
                <polygon id="Fill-1" points="9.60828432 1.42108547e-14 9.6078204 43.5897436 0 43.5897436 0 56.043956 21.2058653 56.043956 21.2063292 12.4537143 44.402419 12.4537143 44.402419 20.3671209 56 20.3671209 56 1.42108547e-14"></polygon>
                <polygon id="Fill-2" points="44.7940221 43.956044 44.7940221 87.5457875 21.5983167 87.5457875 21.5983167 79.632381 10.0004639 79.632381 10 100 56.391411 100 56.391411 56.4102564 66 56.4102564 66 43.956044"></polygon>
            </g>
            <g id="编组-2" transform="translate(0.000000, 17.000000)" fill="#FFFFFF">
                <polygon id="Fill-3" points="43.956044 0 43.956044 21.2059779 87.5457875 21.2059779 87.5457875 44.4016833 79.632381 44.4012194 79.632381 55.9995361 100 56 100 9.60858904 56.4102564 9.60858904 56.4102564 0"></polygon>
                <polygon id="Fill-4" points="-3.26849658e-13 10 -3.26849658e-13 56.3917157 43.5897436 56.3921796 43.5897436 66 56.043956 66 56.043956 44.7941347 12.4542125 44.7936708 12.4542125 21.5980449 20.3671209 21.5980449 20.3671209 10"></polygon>
            </g>
        </g>
    </g>
</svg>